inDegrees=no
num_controls=7
num_derivatives=13
num_iterations=188
num_multipliers=7
num_parameters=0
num_slacks=7
num_states=26
objective=4.417374
objective_accelerations=0.244049
objective_balance=0.030790
objective_effort=0.324625
objective_height=3.720960
objective_ligament=0.096948
solver_duration=1790.682633
status=Solve_Succeeded
success=true
DataType=double
version=3
OpenSimVersion=4.4-2022-07-23-0e9fedc
endheader
time	/jointset/ground_pelvis/pelvis_tilt/value	/jointset/ground_pelvis/pelvis_tx/value	/jointset/ground_pelvis/pelvis_ty/value	/jointset/hip_l/hip_flexion_l/value	/jointset/hip_l/hip_adduction_l/value	/jointset/hip_l/hip_rotation_l/value	/jointset/back/lumbar_extension/value	/jointset/patellofemoral_l/patellar_flexion_l/value	/jointset/knee_l/knee_flexion_l/value	/jointset/knee_l/knee_adduction_l/value	/jointset/knee_l/knee_rotation_l/value	/jointset/ankle_l/ankle_angle_l/value	/jointset/subtalar_l/subtalar_angle_l/value	/jointset/ground_pelvis/pelvis_tilt/speed	/jointset/ground_pelvis/pelvis_tx/speed	/jointset/ground_pelvis/pelvis_ty/speed	/jointset/hip_l/hip_flexion_l/speed	/jointset/hip_l/hip_adduction_l/speed	/jointset/hip_l/hip_rotation_l/speed	/jointset/back/lumbar_extension/speed	/jointset/patellofemoral_l/patellar_flexion_l/speed	/jointset/knee_l/knee_flexion_l/speed	/jointset/knee_l/knee_adduction_l/speed	/jointset/knee_l/knee_rotation_l/speed	/jointset/ankle_l/ankle_angle_l/speed	/jointset/subtalar_l/subtalar_angle_l/speed	/forceset/tau_hip_flexion_l	/forceset/tau_hip_adduction_l	/forceset/tau_hip_rotation_l	/forceset/tau_knee_flexion_l	/forceset/tau_ankle_angle_l	/forceset/tau_subtalar_angle_l	/forceset/tau_lumbar_extension	lambda_cid13_p0	lambda_cid13_p1	lambda_cid13_p2	lambda_cid13_p3	lambda_cid13_p4	lambda_cid13_p5	lambda_cid14_p0	/jointset/ground_pelvis/pelvis_tilt/accel	/jointset/ground_pelvis/pelvis_tx/accel	/jointset/ground_pelvis/pelvis_ty/accel	/jointset/hip_l/hip_flexion_l/accel	/jointset/hip_l/hip_adduction_l/accel	/jointset/hip_l/hip_rotation_l/accel	/jointset/back/lumbar_extension/accel	/jointset/patellofemoral_l/patellar_flexion_l/accel	/jointset/knee_l/knee_flexion_l/accel	/jointset/knee_l/knee_adduction_l/accel	/jointset/knee_l/knee_rotation_l/accel	/jointset/ankle_l/ankle_angle_l/accel	/jointset/subtalar_l/subtalar_angle_l/accel	gamma_cid13_p0	gamma_cid13_p1	gamma_cid13_p2	gamma_cid13_p3	gamma_cid13_p4	gamma_cid13_p5	gamma_cid14_p0
0.5	0.05616879066800533	0.02866415092586476	0.8607702694344748	0.5737457361831573	-0.3290117271678574	-0.1249165726208616	-0.7530700389372883	0.7988149653517154	0.7988149653517169	-0.1113885178971868	-0.1745329067716735	0.2285106067588557	0.04553977957204287	0.2737060628385157	-0.02861161971208469	-0.2295899208660701	0.6441442429990732	-0.06595421285937419	0.4441176181294967	-0.8496884606128053	1.460380332821556	1.460380332821555	0.1199617167036804	2.191908803105608e-06	0.6447105734833728	0.1730275150346416	-0.1545917976470869	0.02915153663058749	-0.00539376490471841	-0.2568612935683801	0.01210352260140745	0.04092471060922279	0.2548601259960462	-39.68827783206915	-13.89014883404515	5.261902618908756	-0.2716742774593705	-698.4038225653794	-81.23642342002755	-14.51685340037985	-0.03747565735612148	0.2806256092163034	-0.1699220167920358	-0.9060450597749226	0.1303429685907046	-0.3871165555842424	1.275589645995234	-1.160617270235597	-1.160617270235597	-0.3363031202714634	0.01416354161312574	-0.2990824952594274	0.1778184939574147	-1.748639174459334e-08	-4.317198649489792e-07	2.431915442684472e-08	-6.515977480134969e-08	-2.724792125667492e-08	-2.353888481598918e-07	-3.498869064648635e-08
0.51	0.05890342595335708	0.02839205406586286	0.8584663995184644	0.580140974893848	-0.3296648750515939	-0.1204958854762873	-0.7615019427997863	0.8133584676692258	0.8133584676692273	-0.110205688313657	-0.1745328087145895	0.2349417033947933	0.04727845538620744	0.2731822413938165	-0.02580834558677312	-0.23112771583822	0.6347968939351024	-0.06467503901743653	0.4399532731383932	-0.8365892101807106	1.448094592578252	1.448094592578251	0.1166049749309417	8.864652874592156e-06	0.6414134456235202	0.1746768335428537	-0.1571633604482109	0.03010420462589954	-0.005547552233773482	-0.2604370472257696	0.008913502210565798	0.04119521030177093	0.2586425127433855	-40.84283013517328	-13.79458801489678	5.2342340105651	0.1591254132112157	-701.156948644052	-81.29246863929714	-13.97730338755432	-0.06564824425951349	0.2800771442621651	-0.137261623698278	-0.9650696151701286	0.1267835097731159	-0.4411092534120051	1.342557997729759	-1.296376215246974	-1.296376215246957	-0.3353006335988374	-0.007364580125414508	-0.3593372856321679	0.1539254152981852	-3.530999053928683e-08	-3.130175773656526e-07	1.775866067910179e-07	-3.696255069339522e-08	-4.517043420786323e-08	-2.410725802860962e-07	-4.27843803205422e-08
0.52	0.06163166045301539	0.02814796971312879	0.8561488409754782	0.5864395421568066	-0.3303052154133554	-0.1161188449381318	-0.7697997611067808	0.8277723478215293	0.827772347821531	-0.1090564143334186	-0.1745329006742527	0.2413369668812757	0.04903271176266315	0.27242590569981	-0.02300911825851801	-0.2323276462612423	0.6248099534526528	-0.06339270846438594	0.4353882968457458	-0.8228713495120886	1.434455899780178	1.434455899780177	0.1132505960452521	-3.581144023742013e-05	0.6375439435923081	0.1761436274928691	-0.159734923249335	0.03105687262121136	-0.005701339562822052	-0.2640128008831596	0.005723481819723927	0.04146570999431843	0.2624248994907247	-42.00030686348308	-13.69862119058612	5.206622209301426	0.5708891072908641	-703.9697443165173	-81.36412348998647	-13.43493707393787	-0.0839785072175382	0.2798162498050119	-0.1023491069665241	-1.033963343470675	0.1309743108132897	-0.4672428158929974	1.399311693300728	-1.431207781189912	-1.431207781189911	-0.3358305428616696	0.003893774176370869	-0.4135573295313189	0.1413135823180833	-6.928198238221902e-08	-1.302846351635691e-07	4.538241887801057e-07	1.135192488426491e-08	-8.227673895212593e-08	-2.635140082372132e-07	-5.950734900351267e-08
0.53	0.0643512151909913	0.02793182224461221	0.8538210020895993	0.5926350193120922	-0.3309328561903177	-0.1117881775401774	-0.7779574149008208	0.8420430652030513	0.8420430652030526	-0.1079417296865468	-0.1745329251994329	0.247690627172262	0.05080048012098986	0.271448951689428	-0.02022493412255313	-0.2331805730267994	0.6141820033704016	-0.06213354749693257	0.430673618852113	-0.8085652326542074	1.419466482411029	1.419466482411029	0.1096954828085453	1.879093565569154e-05	0.6330923079251292	0.1773787102339082	-0.162289610956861	0.03221576331978122	-0.005850376715575539	-0.2674839624106105	0.002351952895906711	0.04157333490412767	0.2661701496048523	-43.22729781409752	-13.50574264434369	5.147563675891941	1.094759585482211	-706.8024660557179	-81.25352328067478	-12.89060030320809	-0.1099765073886537	0.277043039674305	-0.06785113157200888	-1.092743401662078	0.123574612322337	-0.4843853534494057	1.460388178286531	-1.565959173525731	-1.565959173525578	-0.3639616914939635	0.004592619406521042	-0.4753376618903215	0.1098405985123656	-8.422670528982654e-08	-6.812291054797965e-09	5.928097758362032e-07	3.944623248543198e-08	-9.860905818564762e-08	-2.543517665134175e-07	-6.575080305679239e-08
0.54	0.06705991585697536	0.0277433813262917	0.8514864166020204	0.5987211104543433	-0.3315478678330833	-0.1075068179346295	-0.785969182227031	0.8561572583191319	0.8561572583191331	-0.1068623181675261	-0.174532737639773	0.2539968969112607	0.05257964630243007	0.2702550913014417	-0.01746780821930504	-0.2336769666012249	0.6029327508457607	-0.06086688162504041	0.4255267383644409	-0.7936940559461374	1.403151046691944	1.403151046691945	0.1061959704750875	7.359315978359892e-06	0.6280658331947845	0.1784231921155688	-0.164844298664387	0.0333746540183511	-0.005999413868330705	-0.2709551239380598	-0.001019576027910464	0.04168095981393703	0.2699153997189776	-44.45796339488351	-13.3111521643	5.087012645974894	1.597550999739327	-709.7030056478858	-81.17077274488659	-12.34527296467996	-0.1273597827383692	0.2744046032616548	-0.03104246874022931	-1.158223831948628	0.1324752917010205	-0.5536833147008621	1.512323663338501	-1.69641145117731	-1.69641145117731	-0.3247103622118307	-0.009313024937719828	-0.528525142164495	0.1031934104423836	-7.811998171579797e-08	5.109513601456281e-08	5.799420919026072e-07	4.51692904104788e-08	-9.19573934498386e-08	-2.102237625961009e-07	-6.039990049849921e-08
0.55	0.06975558725570914	0.0275823649576607	0.849148663255891	0.6046917002862423	-0.3321501469601278	-0.1032787543769242	-0.7938295169051426	0.8701017981020404	0.8701017981020412	-0.1058177315323139	-0.1745327284569949	0.2602501049067955	0.05436834014636924	0.2688439316077744	-0.01474102530932743	-0.2338122810571093	0.5910856026062158	-0.05958853532889635	0.4200335190082501	-0.7782907246132694	1.385544207469464	1.385544207469463	0.1027196858107253	-4.520197722501152e-06	0.6224845121477122	0.1792816620495302	-0.1671682934945425	0.03429354529542501	-0.006121081919128733	-0.274629472943982	-0.004157002604638061	0.04181208014680993	0.2734680769855901	-45.61038608487166	-13.14037313002137	5.030151428317597	2.070322256332465	-712.5480291424185	-81.17958937805673	-11.80004122044643	-0.1532915018560154	0.2709908226926788	0.004419635276510853	-1.212913518081278	0.1254727996990704	-0.5550675533519142	1.5666611276936	-1.824714024579545	-1.824714024579768	-0.3593072100413611	0.003133366975257129	-0.5866191887784568	0.07200608885912219	-7.031748956903118e-08	1.000392406946682e-07	5.526224902200356e-07	4.853617798961994e-08	-8.306218413932689e-08	-1.640479763489468e-07	-5.426754863142912e-08
0.5600000000000001	0.07243608756967122	0.02744845155569484	0.8468113958790605	0.6105408279961211	-0.3327396509239854	-0.09910720827423561	-0.8015333536180388	0.8838638907193647	0.8838638907193654	-0.1048079516820438	-0.174532786313042	0.2664447629712995	0.05616458515044524	0.2672208743471028	-0.01204721488627505	-0.2335797727414316	0.5786403264417166	-0.05831184898763703	0.4142232473611102	-0.7623944629030955	1.366661613575136	1.366661613575134	0.0992346134866454	-6.04844896206708e-06	0.6163558469886458	0.1799334241429358	-0.1694922883246979	0.0352124365724989	-0.006242749969926431	-0.2783038219499043	-0.007294429181365666	0.04194320047968282	0.2770207542522026	-46.767372974455	-12.96801147241164	4.972143764903524	2.525747043011918	-715.4713841746544	-81.21623682682569	-11.25602231056295	-0.1697392961392423	0.2678101058766106	0.04252208557217834	-1.27784941693949	0.1321433007240717	-0.6170937728906927	1.610909738799704	-1.951562385546838	-1.951562385546838	-0.3264678941553704	-0.007242772445437319	-0.6379939645632767	0.06185184233123063	-6.048007513497856e-08	1.382273585076676e-07	5.07960587238694e-07	4.907566115367435e-08	-7.147472133917207e-08	-1.154148513059878e-07	-4.719745759382674e-08
0.5700000000000001	0.07509932567569909	0.02734128968576001	0.8444782843155803	0.6162626520372255	-0.3333163461955425	-0.0949953608937168	-0.8090758578834841	0.8974310207015652	0.8974310207015666	-0.103832890011509	-0.1745327921247877	0.2725755116229803	0.05796639977537705	0.2653952817963795	-0.009392784611919685	-0.2329815454749304	0.5656330608329345	-0.05702816884050042	0.4080929528949381	-0.7460348265775756	1.346570066345381	1.346570066345379	0.09578119485097122	2.152495388143953e-06	0.6097098380789208	0.1803944822960855	-0.1716947760210964	0.03613058624551976	-0.006333120007610606	-0.2819171094692253	-0.01043754637406237	0.04199793256922293	0.2804266968817358	-47.92224919925238	-12.75480357974522	4.898439296346835	3.016279693826447	-718.2471509040224	-81.18381407325482	-10.71447982019242	-0.1936966656809761	0.2631255376952251	0.07760923510885154	-1.325887970686093	0.1262427334405626	-0.6190308089209907	1.659225120686876	-2.067089729987399	-2.067089729987425	-0.3542214918247498	0.004535990550866408	-0.6905036450284643	0.03289780333089799	-5.097399428010995e-08	1.757409989624706e-07	4.636731640929117e-07	4.975318889451187e-08	-6.076518044888346e-08	-6.766337290046485e-08	-4.023057549161926e-08
0.58	0.0777433623699913	0.02726044532846479	0.8421529822623487	0.6218516588546742	-0.3338802521932817	-0.09094642316294779	-0.8164526188774225	0.9107914074438087	0.9107914074438107	-0.1028922510560411	-0.1745327790345549	0.2786372803273936	0.05977175798214518	0.263380591999972	-0.00678371235835529	-0.2320178706916389	0.5520768817106116	-0.0557539942240796	0.4016413174111451	-0.7292458086017058	1.325312965583723	1.325312965583721	0.09235007047324448	-2.268053237002249e-06	0.6025598575351425	0.1806421405101979	-0.1738972637174949	0.0370487359185406	-0.006423490045294823	-0.2855303969885532	-0.01358066356675907	0.04205266465876201	0.2838326395112639	-49.08273611497221	-12.53940202110535	4.823002250641158	3.494746817533704	-721.1116180075392	-81.17615864037609	-10.17684396459011	-0.2075587452760741	0.2587385017184174	0.115611588930233	-1.387632119647667	0.1302421945809156	-0.6813619764149125	1.696786068869745	-2.184673091927481	-2.184673091927481	-0.3220090425659177	-0.009767071040508736	-0.738788291373861	0.01917185452378387	-4.189941762138804e-08	2.123762502996221e-07	4.198734356166955e-07	5.06104956190669e-08	-5.119897972028117e-08	-2.106008546462664e-08	-3.33981050262052e-08
0.59	0.08036633274977031	0.02720545400740737	0.8398391370415279	0.6273024542975918	-0.3344314308263057	-0.08696351421992987	-0.8236594393771287	0.9239335834593395	0.9239335834593416	-0.10198576593835	-0.1745327935749548	0.2846251261853303	0.06157858106336012	0.2611854637427867	-0.004223151343161604	-0.2306905688743608	0.5379954252640451	-0.05448577368854043	0.3948974463037336	-0.7120572561070757	1.302942035801995	1.302942035801993	0.08894221315419953	-1.841726913453004e-06	0.5949312761346497	0.1806831671418386	-0.1759299186258602	0.03790561411001006	-0.00648251181627121	-0.2891520745858349	-0.01660622306551523	0.04205498297370697	0.2870592996147647	-50.19929274873781	-12.30239689128712	4.736659075246122	3.966539681927063	-723.8161390372708	-81.13907393140363	-9.644422297381116	-0.2296993911155333	0.2534352004661556	0.1503710489449318	-1.431427922836334	0.1244226275442164	-0.6773801261385984	1.739045124632515	-2.29032730031326	-2.290327300313238	-0.3508434201946223	0.00484836031238628	-0.786588349792259	-0.009411830796649277	-3.31112019565229e-08	2.422777612101713e-07	3.753206243016847e-07	5.056049772712428e-08	-4.172842850621627e-08	2.134274564206231e-08	-2.693631180566632e-08
